<svg xmlns="http://www.w3.org/2000/svg" xmlns:xlink="http://www.w3.org/1999/xlink" width="260" zoomAndPan="magnify" viewBox="0 0 194.87999 74.999997" height="100" preserveAspectRatio="xMidYMid meet" version="1.0"><defs><g/></defs><g fill="#000000" fill-opacity="1"><g transform="translate(9.517511, 55.248026)"><g><path d="M 12.84375 -33.25 C 13.40625 -33.351562 14.109375 -33.40625 14.953125 -33.40625 C 15.472656 -33.40625 16.3125 -33.367188 17.46875 -33.296875 C 18.625 -33.234375 19.601562 -33.078125 20.40625 -32.828125 C 23.164062 -31.992188 25.101562 -30.335938 26.21875 -27.859375 C 26.257812 -27.785156 26.316406 -27.675781 26.390625 -27.53125 C 26.765625 -26.726562 26.953125 -26.15625 26.953125 -25.8125 C 26.953125 -25.738281 26.914062 -25.613281 26.84375 -25.4375 C 26.78125 -25.257812 26.117188 -24.820312 24.859375 -24.125 C 24.722656 -24.0625 24.617188 -24.007812 24.546875 -23.96875 C 22.867188 -23.0625 21.976562 -22.609375 21.875 -22.609375 C 21.800781 -22.609375 21.59375 -22.867188 21.25 -23.390625 C 20.332031 -24.785156 19.226562 -25.75 17.9375 -26.28125 C 17.238281 -26.519531 16.644531 -26.648438 16.15625 -26.671875 C 15.664062 -26.691406 15.382812 -26.703125 15.3125 -26.703125 C 14.476562 -26.703125 13.742188 -26.578125 13.109375 -26.328125 C 11.679688 -25.878906 10.570312 -24.847656 9.78125 -23.234375 C 9 -21.628906 8.609375 -19.617188 8.609375 -17.203125 C 8.640625 -14.265625 9.265625 -11.984375 10.484375 -10.359375 C 11.710938 -8.734375 13.425781 -7.921875 15.625 -7.921875 C 17.65625 -7.953125 19.476562 -8.859375 21.09375 -10.640625 C 21.925781 -11.515625 22.34375 -12.023438 22.34375 -12.171875 C 22.34375 -12.273438 22.414062 -12.328125 22.5625 -12.328125 C 22.9375 -12.328125 23.828125 -11.90625 25.234375 -11.0625 C 26.242188 -10.46875 26.84375 -10.082031 27.03125 -9.90625 C 27.226562 -9.738281 27.328125 -9.53125 27.328125 -9.28125 C 27.328125 -9.25 27.328125 -9.210938 27.328125 -9.171875 C 27.296875 -8.796875 27.050781 -8.148438 26.59375 -7.234375 C 26 -5.941406 25.070312 -4.8125 23.8125 -3.84375 C 22.550781 -2.882812 21.097656 -2.179688 19.453125 -1.734375 C 18.515625 -1.484375 17.082031 -1.359375 15.15625 -1.359375 C 13.238281 -1.359375 11.804688 -1.484375 10.859375 -1.734375 C 5.992188 -3.054688 2.847656 -6.359375 1.421875 -11.640625 C 1.097656 -12.765625 0.9375 -14.5 0.9375 -16.84375 C 0.9375 -18.9375 1.054688 -20.5625 1.296875 -21.71875 C 1.546875 -22.875 2.039062 -24.21875 2.78125 -25.75 C 4.8125 -29.914062 8.164062 -32.414062 12.84375 -33.25 Z M 12.84375 -33.25 "/></g></g></g><g fill="#000000" fill-opacity="1"><g transform="translate(37.633729, 55.248026)"><g><path d="M 1.578125 -1.828125 L 1.578125 -34.46875 L 8.34375 -34.46875 C 8.34375 -26.25 8.375 -22.140625 8.4375 -22.140625 C 8.476562 -22.140625 8.796875 -22.332031 9.390625 -22.71875 C 10.085938 -23.238281 10.8125 -23.59375 11.5625 -23.78125 C 12.3125 -23.976562 13.351562 -24.078125 14.6875 -24.078125 C 15.769531 -24.078125 16.492188 -24.050781 16.859375 -24 C 17.234375 -23.945312 17.71875 -23.78125 18.3125 -23.5 C 19.289062 -23.039062 20.066406 -22.425781 20.640625 -21.65625 C 21.210938 -20.894531 21.640625 -19.882812 21.921875 -18.625 C 22.128906 -17.75 22.234375 -14.738281 22.234375 -9.59375 L 22.234375 -1.828125 L 15.734375 -1.828125 L 15.625 -8.65625 C 15.59375 -11.800781 15.550781 -13.765625 15.5 -14.546875 C 15.445312 -15.335938 15.332031 -15.960938 15.15625 -16.421875 C 14.488281 -17.890625 13.441406 -18.625 12.015625 -18.625 C 11.628906 -18.625 11.226562 -18.570312 10.8125 -18.46875 C 10.175781 -18.289062 9.597656 -18.007812 9.078125 -17.625 L 8.34375 -17 L 8.34375 -1.828125 Z M 1.578125 -1.828125 "/></g></g></g><g fill="#000000" fill-opacity="1"><g transform="translate(61.448581, 55.248026)"><g><path d="M 14.953125 -10.234375 L 14.953125 -11.90625 L 12.28125 -11.90625 C 10.25 -11.875 8.800781 -11.59375 7.9375 -11.0625 C 7.082031 -10.539062 6.882812 -9.722656 7.34375 -8.609375 C 7.695312 -7.734375 8.472656 -7.238281 9.671875 -7.125 C 10.878906 -7.019531 12.148438 -7.269531 13.484375 -7.875 L 14.953125 -8.609375 Z M 7.203125 -24.28125 C 8.347656 -24.5625 9.929688 -24.703125 11.953125 -24.703125 C 13.671875 -24.703125 14.96875 -24.578125 15.84375 -24.328125 C 16.71875 -24.085938 17.539062 -23.742188 18.3125 -23.296875 C 19.632812 -22.378906 20.515625 -20.929688 20.953125 -18.953125 C 21.390625 -16.984375 21.59375 -13.304688 21.5625 -7.921875 L 21.5 -2.09375 L 15.421875 -2.09375 L 15.53125 -3.25 L 15.265625 -4.453125 L 13.796875 -3.515625 C 11.273438 -2.046875 8.632812 -1.554688 5.875 -2.046875 C 4.125 -2.359375 2.820312 -3.117188 1.96875 -4.328125 C 1.113281 -5.535156 0.753906 -7.132812 0.890625 -9.125 C 1.140625 -12.582031 3.222656 -14.800781 7.140625 -15.78125 C 8.953125 -16.269531 10.992188 -16.5 13.265625 -16.46875 C 14.179688 -16.46875 14.691406 -16.570312 14.796875 -16.78125 C 14.929688 -17.03125 14.878906 -17.378906 14.640625 -17.828125 C 14.148438 -18.804688 12.835938 -19.28125 10.703125 -19.25 C 8.566406 -19.21875 6.570312 -18.726562 4.71875 -17.78125 L 3.671875 -17.25 L 3.359375 -17.578125 C 3.109375 -17.890625 2.695312 -18.539062 2.125 -19.53125 C 1.550781 -20.53125 1.265625 -21.082031 1.265625 -21.1875 C 1.265625 -21.257812 1.539062 -21.503906 2.09375 -21.921875 C 2.65625 -22.347656 3.300781 -22.75 4.03125 -23.125 C 5.007812 -23.613281 6.066406 -24 7.203125 -24.28125 Z M 7.203125 -24.28125 "/></g></g></g><g fill="#000000" fill-opacity="1"><g transform="translate(84.633972, 55.248026)"><g><path d="M 4.828125 -27.328125 L 4.828125 -30.375 L 11.171875 -30.375 L 11.171875 -24.234375 L 17.09375 -24.234375 L 17.09375 -18.71875 L 10.90625 -18.71875 L 11.015625 -13.640625 C 11.085938 -10.773438 11.179688 -9.039062 11.296875 -8.4375 C 11.421875 -7.84375 11.816406 -7.441406 12.484375 -7.234375 C 13.460938 -6.921875 14.5625 -7.023438 15.78125 -7.546875 L 16.421875 -7.8125 L 17.09375 -6.1875 L 17.78125 -4.609375 L 17.3125 -3.828125 C 16.820312 -3.054688 16.085938 -2.441406 15.109375 -1.984375 C 14.128906 -1.535156 13.023438 -1.3125 11.796875 -1.3125 C 9.035156 -1.3125 7.078125 -2.132812 5.921875 -3.78125 C 5.398438 -4.550781 5.078125 -5.390625 4.953125 -6.296875 C 4.828125 -7.203125 4.734375 -9.316406 4.671875 -12.640625 L 4.5625 -18.71875 L 0.625 -18.71875 L 0.625 -24.234375 L 4.828125 -24.234375 Z M 4.828125 -27.328125 "/></g></g></g><g fill="#000000" fill-opacity="1"><g transform="translate(107.643441, 55.248026)"><g><path d="M 2.09375 -1.828125 L 2.09375 -32.9375 L 9.75 -32.828125 L 11.0625 -30.734375 C 11.65625 -29.796875 12.984375 -27.59375 15.046875 -24.125 C 19.109375 -17.207031 21.3125 -13.503906 21.65625 -13.015625 L 21.65625 -13.640625 C 21.65625 -13.847656 21.644531 -14.082031 21.625 -14.34375 C 21.613281 -14.601562 21.609375 -14.925781 21.609375 -15.3125 L 21.609375 -21.1875 C 21.609375 -21.78125 21.59375 -22.375 21.5625 -22.96875 L 21.5 -32.9375 L 28.53125 -32.9375 L 28.53125 -1.828125 L 24.921875 -1.828125 L 21.25 -1.890625 L 19.71875 -4.296875 C 18.5625 -6.148438 16.832031 -9.035156 14.53125 -12.953125 C 11.875 -17.460938 10.316406 -20.085938 9.859375 -20.828125 L 8.8125 -22.5625 L 8.921875 -20.828125 C 9.023438 -19.597656 9.128906 -16.148438 9.234375 -10.484375 L 9.34375 -1.828125 Z M 2.09375 -1.828125 "/></g></g></g><g fill="#000000" fill-opacity="1"><g transform="translate(127.287548, 55.248026)"><g><path d="M 2.09375 -1.828125 L 2.09375 -33.046875 L 9.34375 -32.9375 L 9.234375 -8.390625 L 22.96875 -8.390625 L 22.96875 -1.828125 Z M 2.09375 -1.828125 "/></g></g></g><g fill="#000000" fill-opacity="1"><g transform="translate(145.228935, 55.248026)"><g><path d="M 2.46875 -25.4375 L 2.625 -32.9375 L 7.609375 -32.9375 C 10.085938 -32.9375 11.550781 -32.914062 12 -32.875 C 12.457031 -32.84375 12.757812 -32.707031 12.90625 -32.46875 C 13.1875 -32.007812 14.09375 -29.914062 15.625 -26.1875 C 17.164062 -22.46875 18.515625 -19.109375 19.671875 -16.109375 C 20.015625 -15.234375 20.257812 -14.796875 20.40625 -14.796875 C 20.539062 -14.796875 20.644531 -15.003906 20.71875 -15.421875 C 20.894531 -16.398438 22.695312 -21.296875 26.125 -30.109375 L 27.21875 -32.9375 L 37.765625 -32.9375 L 37.875 -25.4375 C 37.976562 -20.644531 38.03125 -15.488281 38.03125 -9.96875 L 38.03125 -1.828125 L 30.84375 -1.828125 L 30.84375 -5.921875 C 30.8125 -9.984375 30.757812 -13.78125 30.6875 -17.3125 L 30.53125 -24.5 L 29.21875 -21.09375 C 27.539062 -16.71875 26.160156 -13.253906 25.078125 -10.703125 L 22.296875 -3.78125 L 18.09375 -3.671875 L 17.625 -4.875 C 17.132812 -5.894531 16.066406 -8.390625 14.421875 -12.359375 C 12.773438 -16.328125 11.65625 -19.097656 11.0625 -20.671875 C 10.332031 -22.523438 9.878906 -23.453125 9.703125 -23.453125 C 9.597656 -23.171875 9.546875 -19.5 9.546875 -12.4375 L 9.546875 -1.828125 L 2.09375 -1.828125 L 2.203125 -9.96875 C 2.335938 -16.363281 2.425781 -21.519531 2.46875 -25.4375 Z M 2.46875 -25.4375 "/></g></g></g></svg>